<svg xmlns="http://www.w3.org/2000/svg" viewBox="0 0 64 64" role="img" aria-label="Steak token">
<defs><linearGradient id="g" x1="8" y1="6" x2="54" y2="58" gradientUnits="userSpaceOnUse"><stop stop-color="#1ff15c"/><stop offset="1" stop-color="#00a83f"/></linearGradient><linearGradient id="r" x1="12" y1="10" x2="52" y2="54"><stop stop-color="#203746"/><stop offset="1" stop-color="#0a151d"/></linearGradient></defs>
<circle cx="32" cy="32" r="30" fill="url(#r)" stroke="#2f5163" stroke-width="2"/>
<circle cx="32" cy="32" r="23" fill="url(#g)"/>
<g fill="#0a2212"><rect x="30" y="3" width="4" height="8" rx="2"/><rect x="30" y="53" width="4" height="8" rx="2"/><rect x="53" y="30" width="8" height="4" rx="2"/><rect x="3" y="30" width="8" height="4" rx="2"/><rect x="48.3" y="10.6" width="4" height="8" rx="2" transform="rotate(45 50.3 14.6)"/><rect x="11.7" y="45.4" width="4" height="8" rx="2" transform="rotate(45 13.7 49.4)"/><rect x="45.4" y="48.3" width="8" height="4" rx="2" transform="rotate(45 49.4 50.3)"/><rect x="10.6" y="11.7" width="8" height="4" rx="2" transform="rotate(45 14.6 13.7)"/></g>
<path d="M42.5 23.5c-2.6-2.2-6.1-3.5-10-3.5-6.2 0-10.4 2.6-10.4 7 0 4.4 3.5 5.8 9.6 6.8 4 .7 5.5 1.1 5.5 2.7 0 1.7-1.8 2.8-4.7 2.8-3.5 0-6.6-1.1-9.6-3.4l-3.6 5.2c3.4 2.7 7.8 4.3 12.8 4.3 7 0 11.5-3.1 11.5-7.9 0-4.5-3.4-6.2-10-7.3-3.8-.7-5.2-1.1-5.2-2.5 0-1.3 1.5-2.2 4-2.2 2.7 0 5.1.8 7.4 2.5l2.7-4.5Z" fill="#05200d"/>
</svg>